<svg width="30" height="30" viewBox="0 0 30 30" fill="none" xmlns="http://www.w3.org/2000/svg">
<path d="M21.25 11.1838C20.79 11.3838 20.2962 11.5213 19.7775 11.5813C20.3075 11.2688 20.7125 10.7738 20.905 10.185C20.4 10.4793 19.8489 10.6864 19.275 10.7975C19.0336 10.5445 18.7432 10.3433 18.4215 10.2062C18.0997 10.069 17.7535 9.99891 17.4038 10C15.9875 10 14.84 11.1313 14.84 12.525C14.84 12.7225 14.8625 12.915 14.9062 13.1C13.8904 13.0518 12.8958 12.7923 11.9858 12.3382C11.0758 11.8841 10.2705 11.2453 9.62125 10.4625C9.3932 10.8464 9.27314 11.2848 9.27375 11.7313C9.27375 12.6063 9.7275 13.3813 10.415 13.8325C10.0081 13.8198 9.60983 13.7114 9.2525 13.5163V13.5475C9.25636 14.1343 9.4635 14.7017 9.83865 15.153C10.2138 15.6042 10.7338 15.9115 11.31 16.0225C10.9317 16.1225 10.5359 16.1371 10.1513 16.065C10.3189 16.5698 10.6396 17.01 11.0688 17.3242C11.498 17.6385 12.0144 17.8113 12.5462 17.8188C11.6337 18.522 10.5133 18.9019 9.36125 18.8988C9.155 18.8988 8.95125 18.8863 8.75 18.8638C9.92559 19.6079 11.2887 20.002 12.68 20C17.3975 20 19.9762 16.1525 19.9762 12.815L19.9675 12.4875C20.4704 12.1341 20.9049 11.6924 21.25 11.1838Z" fill="white"/>
<path d="M7.5 5C6.83696 5 6.20107 5.26339 5.73223 5.73223C5.26339 6.20107 5 6.83696 5 7.5V22.5C5 23.163 5.26339 23.7989 5.73223 24.2678C6.20107 24.7366 6.83696 25 7.5 25H22.5C23.163 25 23.7989 24.7366 24.2678 24.2678C24.7366 23.7989 25 23.163 25 22.5V7.5C25 6.83696 24.7366 6.20107 24.2678 5.73223C23.7989 5.26339 23.163 5 22.5 5H7.5ZM7.5 2.5H22.5C23.8261 2.5 25.0979 3.02678 26.0355 3.96447C26.9732 4.90215 27.5 6.17392 27.5 7.5V22.5C27.5 23.8261 26.9732 25.0979 26.0355 26.0355C25.0979 26.9732 23.8261 27.5 22.5 27.5H7.5C6.17392 27.5 4.90215 26.9732 3.96447 26.0355C3.02678 25.0979 2.5 23.8261 2.5 22.5V7.5C2.5 6.17392 3.02678 4.90215 3.96447 3.96447C4.90215 3.02678 6.17392 2.5 7.5 2.5Z" fill="white"/>
</svg>
