<svg width="25" height="26" viewBox="0 0 25 26" fill="none" xmlns="http://www.w3.org/2000/svg">
<path d="M16.7188 13C16.7188 10.6562 14.8438 8.78125 12.5 8.78125C10.1562 8.78125 8.28125 10.6562 8.28125 13C8.28125 15.3438 10.1562 17.2188 12.5 17.2188C14.8438 17.2188 16.7188 15.3438 16.7188 13ZM18.9062 13C18.9062 16.5938 16.0938 19.4062 12.5 19.4062C8.90625 19.4062 6.09375 16.5938 6.09375 13C6.09375 9.40625 8.90625 6.59375 12.5 6.59375C16.0938 6.59375 18.9062 9.40625 18.9062 13ZM20.625 6.28125C20.625 7.21875 20 7.84375 19.0625 7.84375C18.125 7.84375 17.5 7.21875 17.5 6.28125C17.5 5.34375 18.125 4.71875 19.0625 4.71875C20 4.71875 20.625 5.5 20.625 6.28125ZM12.5 2.6875C10.625 2.6875 6.71875 2.53125 5.15625 3.15625C4.0625 3.625 3.125 4.5625 2.8125 5.65625C2.1875 7.21875 2.34375 11.125 2.34375 13C2.34375 14.875 2.1875 18.7812 2.8125 20.3438C3.125 21.4375 4.0625 22.375 5.15625 22.6875C6.71875 23.3125 10.7812 23.1562 12.5 23.1562C14.2188 23.1562 18.2812 23.3125 19.8438 22.6875C20.9375 22.2188 21.7188 21.4375 22.1875 20.3438C22.8125 18.625 22.6562 14.7188 22.6562 13C22.6562 11.2812 22.8125 7.21875 22.1875 5.65625C21.875 4.5625 20.9375 3.625 19.8438 3.3125C18.2812 2.53125 14.375 2.6875 12.5 2.6875ZM25 13V18.1562C25 20.0312 24.375 21.9063 22.9688 23.4688C21.5625 24.875 19.6875 25.5 17.6562 25.5H7.34375C5.46875 25.5 3.59375 24.875 2.03125 23.4688C0.78125 22.0625 0 20.1875 0 18.1562V13V7.84375C0 5.8125 0.78125 3.9375 2.03125 2.53125C3.59375 1.28125 5.46875 0.5 7.34375 0.5H17.6562C19.5312 0.5 21.4063 1.125 22.9688 2.53125C24.2188 3.9375 25 5.8125 25 7.84375V13Z" fill="white"/>
</svg>
