<svg width="28" height="28" viewBox="0 0 28 28" fill="none" xmlns="http://www.w3.org/2000/svg">
<path d="M11.675 11.0523L17.625 14.0109L11.675 16.9695V11.0523ZM28 4.375V23.625C28 25.0742 26.6562 26.25 25 26.25H3C1.34375 26.25 0 25.0742 0 23.625V4.375C0 2.92578 1.34375 1.75 3 1.75H25C26.6562 1.75 28 2.92578 28 4.375ZM25.375 14.0164C25.375 14.0164 25.375 10.757 24.9 9.19297C24.6375 8.32891 23.8688 7.65078 22.8875 7.42109C21.1188 7 14 7 14 7C14 7 6.88125 7 5.1125 7.42109C4.13125 7.65078 3.3625 8.32891 3.1 9.19297C2.625 10.7516 2.625 14.0164 2.625 14.0164C2.625 14.0164 2.625 17.2758 3.1 18.8398C3.3625 19.7039 4.13125 20.3547 5.1125 20.5844C6.88125 21 14 21 14 21C14 21 21.1188 21 22.8875 20.5789C23.8688 20.3492 24.6375 19.6984 24.9 18.8344C25.375 17.2758 25.375 14.0164 25.375 14.0164Z" fill="white"/>
</svg>
