<svg width="30" height="30" viewBox="0 0 30 30" fill="none" xmlns="http://www.w3.org/2000/svg">
<path d="M13.3686 11.1713V12.8925H12.1086V14.9962H13.3686V21.25H15.9586V14.9962H17.6961C17.6961 14.9962 17.8599 13.9875 17.9386 12.8837H15.9686V11.4462C15.9686 11.23 16.2511 10.9413 16.5311 10.9413H17.9411V8.75H16.0224C13.3049 8.75 13.3686 10.8563 13.3686 11.1713Z" fill="white"/>
<path d="M7.5 5C6.83696 5 6.20107 5.26339 5.73223 5.73223C5.26339 6.20107 5 6.83696 5 7.5V22.5C5 23.163 5.26339 23.7989 5.73223 24.2678C6.20107 24.7366 6.83696 25 7.5 25H22.5C23.163 25 23.7989 24.7366 24.2678 24.2678C24.7366 23.7989 25 23.163 25 22.5V7.5C25 6.83696 24.7366 6.20107 24.2678 5.73223C23.7989 5.26339 23.163 5 22.5 5H7.5ZM7.5 2.5H22.5C23.8261 2.5 25.0979 3.02678 26.0355 3.96447C26.9732 4.90215 27.5 6.17392 27.5 7.5V22.5C27.5 23.8261 26.9732 25.0979 26.0355 26.0355C25.0979 26.9732 23.8261 27.5 22.5 27.5H7.5C6.17392 27.5 4.90215 26.9732 3.96447 26.0355C3.02678 25.0979 2.5 23.8261 2.5 22.5V7.5C2.5 6.17392 3.02678 4.90215 3.96447 3.96447C4.90215 3.02678 6.17392 2.5 7.5 2.5Z" fill="white"/>
</svg>
